<?xml version="1.0" encoding="UTF-8" standalone="no"?>
<!DOCTYPE score-partwise PUBLIC "-//Recordare//DTD MusicXML 2.0 Partwise//EN" "http://www.musicxml.org/dtds/partwise.dtd">
<score-partwise version="2.0">
	<work>
		<work-title>pasajera en trance</work-title>
	</work>
	<identification>
		<creator type="composer">charly garc í a</creator>
		<encoding>
			<software>PDFtoMusic Pro v1.6.5 Build 1B9E7 (c) Myriad - http://www.myriad-online.com</software>
			<?PDFtoMusic Document type 0100- 00000000?>
			<supports attribute="new-system" element="print" type="yes" value="yes"/>
			<supports attribute="new-page" element="print" type="yes" value="yes"/>
		</encoding>
	</identification>
	<defaults>
		<scaling>
			<millimeters>8.466666</millimeters>
			<tenths>40</tenths>
		</scaling>
		<page-layout>
			<page-height>1680.000</page-height>
			<page-width>1020.000</page-width>
			<page-margins type="both">
				<left-margin>47.244</left-margin>
				<right-margin>47.244</right-margin>
				<top-margin>47.244</top-margin>
				 <bottom-margin>47.244</bottom-margin>
			</page-margins>
		</page-layout>
		<appearance>
			<line-width type="stem">0.2000</line-width>
			<line-width type="staff">1.0000</line-width>
			<line-width type="light barline">0.5257</line-width>
			<line-width type="heavy barline">6.6000</line-width>
		</appearance>
	</defaults>
	<credit page="1">
		<credit-words  default-x="352.000" default-y="1560.800" justify="left" valign="baseline" font-family="Times New Roman" font-size="24" font-weight="bold" font-style="normal">pasajera en trance</credit-words>
	</credit>
	<credit page="1">
		<credit-words  default-x="857.400" default-y="1511.600" justify="left" valign="baseline" font-family="Times New Roman" font-size="12" font-weight="normal" font-style="normal">charly garc í a</credit-words>
	</credit>
	<part-list>
		<score-part id="P1">
			<part-name></part-name>
			<score-instrument id="P1-I1">
				<instrument-name>Instrument 1</instrument-name>
			</score-instrument>
			<midi-instrument id="P1-I1">
				<midi-channel>1</midi-channel>
				<midi-bank>1</midi-bank>
				<midi-program>1</midi-program>
				<volume>50</volume>
				<pan>0</pan>
				<elevation>0</elevation>
				<?Myriad
				<iddigit>0</iddigit>
				?>
			</midi-instrument>
		</score-part>
	</part-list>
	<part id="P1">
		<!--==========================[1,1]=============================-->
		<measure number="1" width="522">
			<print new-page="yes">
				<system-layout>
					<system-margins>
						<left-margin>12.756</left-margin>
						<right-margin>12.500</right-margin>
					</system-margins>
					<top-system-distance>161.656</top-system-distance>
				</system-layout>
			</print>
			<attributes>
				<divisions>6720</divisions>
				<clef number="1">
					<sign>G</sign>
					<line>2</line>
				</clef>
				<staff-details number="1" print-object="yes">
					<staff-lines>5</staff-lines>
					<staff-size>100.00</staff-size>
				</staff-details>
			</attributes>
			<direction placement="below">
				<direction-type>
					<words font-family="Times New Roman" font-size="15" font-weight="bold" font-style="italic" relative-x="23.04" default-y="-74.10">transcripta por s. afonso.</words>
				</direction-type>
			</direction>
			<note>
				<pitch>
					<step>E</step>
					<octave>5</octave>
				</pitch>
				<duration>3360</duration>
				<voice>1</voice>
				<type>eighth</type>
				<stem default-y="-40.50">down</stem>
			</note>
			<note>
				<pitch>
					<step>C</step>
					<octave>5</octave>
				</pitch>
				<duration>3360</duration>
				<voice>1</voice>
				<type>eighth</type>
				<stem default-y="-50.50">down</stem>
			</note>
			<note>
				<pitch>
					<step>D</step>
					<octave>5</octave>
				</pitch>
				<duration>3360</duration>
				<voice>1</voice>
				<type>eighth</type>
				<stem default-y="-45.50">down</stem>
			</note>
			<note>
				<pitch>
					<step>A</step>
					<octave>4</octave>
				</pitch>
				<duration>3360</duration>
				<voice>1</voice>
				<type>eighth</type>
				<stem default-y="9.87">up</stem>
			</note>
			<note>
				<pitch>
					<step>C</step>
					<octave>5</octave>
				</pitch>
				<duration>3360</duration>
				<voice>1</voice>
				<type>eighth</type>
				<stem default-y="-50.50">down</stem>
			</note>
			<note>
				<pitch>
					<step>D</step>
					<octave>5</octave>
				</pitch>
				<duration>5040</duration>
				<voice>1</voice>
				<type>eighth</type>
				<dot/>
				<stem default-y="-45.50">down</stem>
			</note>
			<note>
				<rest>
					<display-step>A</display-step>
					<display-octave>4</display-octave>
				</rest>
				<duration>1260</duration>
				<voice>1</voice>
				<type>32nd</type>
				<dot/>
			</note>
			<note>
				<pitch>
					<step>E</step>
					<octave>5</octave>
				</pitch>
				<duration>5040</duration>
				<voice>1</voice>
				<type>eighth</type>
				<dot/>
				<stem default-y="-40.50">down</stem>
			</note>
			<note>
				<rest>
					<display-step>E</display-step>
					<display-octave>4</display-octave>
				</rest>
				<duration>630</duration>
				<voice>1</voice>
				<type>64th</type>
				<dot/>
			</note>
			<note>
				<pitch>
					<step>C</step>
					<octave>5</octave>
				</pitch>
				<duration>3360</duration>
				<voice>1</voice>
				<type>eighth</type>
				<stem default-y="-50.50">down</stem>
			</note>
		</measure>
		<!--==========================[1,2]=============================-->
		<measure number="2" width="377">
			<note>
				<pitch>
					<step>D</step>
					<octave>5</octave>
				</pitch>
				<duration>3360</duration>
				<voice>1</voice>
				<type>eighth</type>
				<stem default-y="-45.50">down</stem>
			</note>
			<note>
				<pitch>
					<step>A</step>
					<octave>4</octave>
				</pitch>
				<duration>2520</duration>
				<voice>1</voice>
				<type>16th</type>
				<dot/>
				<stem default-y="19.87">up</stem>
			</note>
			<note>
				<rest>
					<display-step>E</display-step>
					<display-octave>4</display-octave>
				</rest>
				<duration>420</duration>
				<voice>1</voice>
				<type>64th</type>
			</note>
			<note>
				<pitch>
					<step>C</step>
					<octave>5</octave>
				</pitch>
				<duration>3360</duration>
				<voice>1</voice>
				<type>eighth</type>
				<stem default-y="-50.50">down</stem>
			</note>
			<note>
				<pitch>
					<step>C</step>
					<octave>5</octave>
				</pitch>
				<duration>3360</duration>
				<voice>1</voice>
				<type>eighth</type>
				<stem default-y="-50.50">down</stem>
			</note>
			<note>
				<pitch>
					<step>D</step>
					<octave>5</octave>
				</pitch>
				<duration>3360</duration>
				<voice>1</voice>
				<type>eighth</type>
				<stem default-y="-45.50">down</stem>
			</note>
			<note>
				<pitch>
					<step>C</step>
					<octave>5</octave>
				</pitch>
				<duration>3360</duration>
				<voice>1</voice>
				<type>eighth</type>
				<stem default-y="-50.50">down</stem>
			</note>
			<note>
				<rest>
					<display-step>E</display-step>
					<display-octave>4</display-octave>
				</rest>
				<duration>420</duration>
				<voice>1</voice>
				<type>64th</type>
			</note>
		</measure>
		<!--==========================[1,3]=============================-->
		<measure number="3" width="900">
			<print new-system="yes">
				<system-layout>
					<system-margins>
						<left-margin>12.756</left-margin>
						<right-margin>12.500</right-margin>
					</system-margins>
					<system-distance>89.400</system-distance>
				</system-layout>
			</print>
			<attributes>
				<staff-details number="1" print-object="yes">
				</staff-details>
			</attributes>
			<note>
				<pitch>
					<step>E</step>
					<octave>5</octave>
				</pitch>
				<duration>2520</duration>
				<voice>1</voice>
				<type>16th</type>
				<dot/>
				<stem default-y="-50.50">down</stem>
			</note>
			<note>
				<rest>
					<display-step>E</display-step>
					<display-octave>4</display-octave>
				</rest>
				<duration>630</duration>
				<voice>1</voice>
				<type>64th</type>
				<dot/>
			</note>
			<note>
				<pitch>
					<step>C</step>
					<octave>5</octave>
				</pitch>
				<duration>3360</duration>
				<voice>1</voice>
				<type>eighth</type>
				<stem default-y="-50.50">down</stem>
			</note>
			<note>
				<pitch>
					<step>D</step>
					<octave>5</octave>
				</pitch>
				<duration>3360</duration>
				<voice>1</voice>
				<type>eighth</type>
				<stem default-y="-45.50">down</stem>
			</note>
			<note>
				<pitch>
					<step>A</step>
					<octave>4</octave>
				</pitch>
				<duration>3360</duration>
				<voice>1</voice>
				<type>eighth</type>
				<stem default-y="9.86">up</stem>
			</note>
			<note>
				<pitch>
					<step>C</step>
					<octave>5</octave>
				</pitch>
				<duration>3360</duration>
				<voice>1</voice>
				<type>eighth</type>
				<stem default-y="-50.50">down</stem>
			</note>
			<note>
				<pitch>
					<step>E</step>
					<octave>5</octave>
				</pitch>
				<duration>5040</duration>
				<voice>1</voice>
				<type>eighth</type>
				<dot/>
				<stem default-y="-40.50">down</stem>
			</note>
			<note>
				<rest>
					<display-step>A</display-step>
					<display-octave>4</display-octave>
				</rest>
				<duration>1260</duration>
				<voice>1</voice>
				<type>32nd</type>
				<dot/>
			</note>
			<note>
				<pitch>
					<step>D</step>
					<octave>5</octave>
				</pitch>
				<duration>5040</duration>
				<voice>1</voice>
				<type>eighth</type>
				<dot/>
				<stem default-y="-45.50">down</stem>
			</note>
			<note>
				<rest>
					<display-step>E</display-step>
					<display-octave>4</display-octave>
				</rest>
				<duration>420</duration>
				<voice>1</voice>
				<type>64th</type>
			</note>
			<note>
				<pitch>
					<step>D</step>
					<octave>5</octave>
				</pitch>
				<duration>1260</duration>
				<voice>1</voice>
				<type>32nd</type>
				<dot/>
				<stem default-y="-65.50">down</stem>
			</note>
			<note>
				<pitch>
					<step>B</step>
					<octave>4</octave>
				</pitch>
				<duration>2520</duration>
				<voice>1</voice>
				<type>16th</type>
				<dot/>
				<stem default-y="-65.50">down</stem>
			</note>
			<note>
				<pitch>
					<step>G</step>
					<octave>4</octave>
				</pitch>
				<duration>10080</duration>
				<voice>1</voice>
				<type>quarter</type>
				<dot/>
				<stem default-y="4.50">up</stem>
			</note>
			<note>
				<rest>
				</rest>
				<duration>6720</duration>
				<voice>1</voice>
				<type>quarter</type>
			</note>
		</measure>
		<!--==========================[1,4]=============================-->
		<measure number="4" width="900">
			<print new-system="yes">
				<system-layout>
					<system-margins>
						<left-margin>12.756</left-margin>
						<right-margin>12.500</right-margin>
					</system-margins>
					<system-distance>89.400</system-distance>
				</system-layout>
			</print>
			<attributes>
				<staff-details number="1" print-object="yes">
				</staff-details>
			</attributes>
			<note>
				<pitch>
					<step>E</step>
					<octave>5</octave>
				</pitch>
				<duration>3360</duration>
				<voice>1</voice>
				<type>eighth</type>
				<stem default-y="-40.50">down</stem>
			</note>
			<note>
				<rest>
					<display-step>E</display-step>
					<display-octave>4</display-octave>
				</rest>
				<duration>420</duration>
				<voice>1</voice>
				<type>64th</type>
			</note>
			<note>
				<pitch>
					<step>C</step>
					<octave>5</octave>
				</pitch>
				<duration>3360</duration>
				<voice>1</voice>
				<type>eighth</type>
				<stem default-y="-50.50">down</stem>
			</note>
			<note>
				<rest>
				</rest>
				<duration>3360</duration>
				<voice>1</voice>
				<type>eighth</type>
			</note>
			<note>
				<pitch>
					<step>A</step>
					<octave>4</octave>
				</pitch>
				<duration>3360</duration>
				<voice>1</voice>
				<type>eighth</type>
				<stem default-y="9.86">up</stem>
			</note>
			<note>
				<pitch>
					<step>C</step>
					<octave>5</octave>
				</pitch>
				<duration>3360</duration>
				<voice>1</voice>
				<type>eighth</type>
				<stem default-y="-50.50">down</stem>
			</note>
			<note>
				<pitch>
					<step>D</step>
					<octave>5</octave>
				</pitch>
				<duration>3360</duration>
				<voice>1</voice>
				<type>eighth</type>
				<stem default-y="-45.50">down</stem>
			</note>
			<note>
				<rest>
				</rest>
				<duration>3360</duration>
				<voice>1</voice>
				<type>eighth</type>
			</note>
			<note>
				<pitch>
					<step>E</step>
					<octave>5</octave>
				</pitch>
				<duration>5040</duration>
				<voice>1</voice>
				<type>eighth</type>
				<dot/>
				<stem default-y="-40.50">down</stem>
			</note>
			<note>
				<rest>
					<display-step>E</display-step>
					<display-octave>4</display-octave>
				</rest>
				<duration>420</duration>
				<voice>1</voice>
				<type>64th</type>
			</note>
			<note>
				<pitch>
					<step>C</step>
					<octave>5</octave>
				</pitch>
				<duration>3360</duration>
				<voice>1</voice>
				<type>eighth</type>
				<stem default-y="-50.50">down</stem>
			</note>
			<note>
				<pitch>
					<step>D</step>
					<octave>5</octave>
				</pitch>
				<duration>5040</duration>
				<voice>1</voice>
				<type>eighth</type>
				<dot/>
				<stem default-y="-45.50">down</stem>
			</note>
			<note>
				<rest>
					<display-step>A</display-step>
					<display-octave>4</display-octave>
				</rest>
				<duration>1680</duration>
				<voice>1</voice>
				<type>16th</type>
			</note>
			<note>
				<pitch>
					<step>C</step>
					<octave>5</octave>
				</pitch>
				<duration>3360</duration>
				<voice>1</voice>
				<type>eighth</type>
				<stem default-y="-50.50">down</stem>
			</note>
			<note>
				<pitch>
					<step>D</step>
					<octave>5</octave>
				</pitch>
				<duration>5040</duration>
				<voice>1</voice>
				<type>eighth</type>
				<dot/>
				<stem default-y="-45.50">down</stem>
			</note>
			<note>
				<rest>
					<display-step>A</display-step>
					<display-octave>4</display-octave>
				</rest>
				<duration>2520</duration>
				<voice>1</voice>
				<type>16th</type>
				<dot/>
			</note>
		</measure>
		<!--==========================[1,5]=============================-->
		<measure number="5" width="553">
			<print new-system="yes">
				<system-layout>
					<system-margins>
						<left-margin>12.756</left-margin>
						<right-margin>12.500</right-margin>
					</system-margins>
					<system-distance>89.400</system-distance>
				</system-layout>
			</print>
			<attributes>
				<staff-details number="1" print-object="yes">
				</staff-details>
			</attributes>
			<note>
				<pitch>
					<step>E</step>
					<octave>5</octave>
				</pitch>
				<duration>5040</duration>
				<voice>1</voice>
				<type>eighth</type>
				<dot/>
				<stem default-y="-40.50">down</stem>
			</note>
			<note>
				<rest>
					<display-step>E</display-step>
					<display-octave>4</display-octave>
				</rest>
				<duration>630</duration>
				<voice>1</voice>
				<type>64th</type>
				<dot/>
			</note>
			<note>
				<pitch>
					<step>C</step>
					<octave>5</octave>
				</pitch>
				<duration>3360</duration>
				<voice>1</voice>
				<type>eighth</type>
				<stem default-y="-50.50">down</stem>
			</note>
			<note>
				<pitch>
					<step>D</step>
					<octave>5</octave>
				</pitch>
				<duration>3360</duration>
				<voice>1</voice>
				<type>eighth</type>
				<stem default-y="-45.50">down</stem>
			</note>
			<note>
				<pitch>
					<step>A</step>
					<octave>4</octave>
				</pitch>
				<duration>3360</duration>
				<voice>1</voice>
				<type>eighth</type>
				<stem default-y="9.87">up</stem>
			</note>
			<note>
				<pitch>
					<step>C</step>
					<octave>5</octave>
				</pitch>
				<duration>3360</duration>
				<voice>1</voice>
				<type>eighth</type>
				<stem default-y="-50.50">down</stem>
			</note>
			<note>
				<pitch>
					<step>E</step>
					<octave>5</octave>
				</pitch>
				<duration>5040</duration>
				<voice>1</voice>
				<type>eighth</type>
				<dot/>
				<stem default-y="-40.50">down</stem>
			</note>
			<note>
				<rest>
					<display-step>A</display-step>
					<display-octave>4</display-octave>
				</rest>
				<duration>1260</duration>
				<voice>1</voice>
				<type>32nd</type>
				<dot/>
			</note>
			<note>
				<pitch>
					<step>D</step>
					<octave>5</octave>
				</pitch>
				<duration>5040</duration>
				<voice>1</voice>
				<type>eighth</type>
				<dot/>
				<stem default-y="-45.50">down</stem>
			</note>
			<note>
				<rest>
					<display-step>E</display-step>
					<display-octave>4</display-octave>
				</rest>
				<duration>420</duration>
				<voice>1</voice>
				<type>64th</type>
			</note>
			<note>
				<pitch>
					<step>D</step>
					<octave>5</octave>
				</pitch>
				<duration>1260</duration>
				<voice>1</voice>
				<type>32nd</type>
				<dot/>
				<stem default-y="-65.50">down</stem>
			</note>
			<note>
				<pitch>
					<step>B</step>
					<octave>4</octave>
				</pitch>
				<duration>2520</duration>
				<voice>1</voice>
				<type>16th</type>
				<dot/>
				<stem default-y="-65.50">down</stem>
			</note>
			<note>
				<pitch>
					<step>G</step>
					<octave>4</octave>
				</pitch>
				<duration>10080</duration>
				<voice>1</voice>
				<type>quarter</type>
				<dot/>
				<stem default-y="4.50">up</stem>
			</note>
			<note>
				<rest>
				</rest>
				<duration>6720</duration>
				<voice>1</voice>
				<type>quarter</type>
			</note>
		</measure>
		<!--==========================[1,6]=============================-->
		<measure number="6" width="346">
			<note>
				<pitch>
					<step>C</step>
					<octave>5</octave>
				</pitch>
				<duration>3360</duration>
				<voice>1</voice>
				<type>eighth</type>
				<stem default-y="-50.50">down</stem>
			</note>
			<note>
				<pitch>
					<step>B</step>
					<octave>4</octave>
				</pitch>
				<duration>3360</duration>
				<voice>1</voice>
				<type>eighth</type>
				<stem default-y="-55.50">down</stem>
			</note>
			<note>
				<pitch>
					<step>C</step>
					<octave>5</octave>
				</pitch>
				<duration>3360</duration>
				<voice>1</voice>
				<type>eighth</type>
				<stem default-y="-50.50">down</stem>
			</note>
			<note>
				<pitch>
					<step>B</step>
					<octave>4</octave>
				</pitch>
				<duration>3360</duration>
				<voice>1</voice>
				<type>eighth</type>
				<stem default-y="-55.50">down</stem>
			</note>
			<note>
				<pitch>
					<step>C</step>
					<octave>5</octave>
				</pitch>
				<duration>3360</duration>
				<voice>1</voice>
				<type>eighth</type>
				<stem default-y="-50.50">down</stem>
			</note>
			<note>
				<rest>
					<display-step>E</display-step>
					<display-octave>4</display-octave>
				</rest>
				<duration>420</duration>
				<voice>1</voice>
				<type>64th</type>
			</note>
			<note>
				<pitch>
					<step>C</step>
					<octave>5</octave>
				</pitch>
				<duration>5040</duration>
				<voice>1</voice>
				<type>eighth</type>
				<dot/>
				<stem default-y="-50.50">down</stem>
			</note>
			<note>
				<rest>
					<display-step>A</display-step>
					<display-octave>4</display-octave>
				</rest>
				<duration>1260</duration>
				<voice>1</voice>
				<type>32nd</type>
				<dot/>
			</note>
			<note>
				<pitch>
					<step>B</step>
					<octave>4</octave>
				</pitch>
				<duration>10080</duration>
				<voice>1</voice>
				<type>quarter</type>
				<dot/>
				<stem default-y="-55.50">down</stem>
			</note>
			<note>
				<rest>
				</rest>
				<duration>3360</duration>
				<voice>1</voice>
				<type>eighth</type>
			</note>
		</measure>
		<!--==========================[1,7]=============================-->
		<measure number="7" width="572">
			<print new-system="yes">
				<system-layout>
					<system-margins>
						<left-margin>12.756</left-margin>
						<right-margin>12.500</right-margin>
					</system-margins>
					<system-distance>89.400</system-distance>
				</system-layout>
			</print>
			<attributes>
				<staff-details number="1" print-object="yes">
				</staff-details>
			</attributes>
			<note>
				<pitch>
					<step>B</step>
					<octave>4</octave>
				</pitch>
				<duration>3360</duration>
				<voice>1</voice>
				<type>eighth</type>
				<stem default-y="-55.50">down</stem>
			</note>
			<note>
				<pitch>
					<step>D</step>
					<octave>5</octave>
				</pitch>
				<duration>3360</duration>
				<voice>1</voice>
				<type>eighth</type>
				<stem default-y="-45.50">down</stem>
			</note>
			<note>
				<pitch>
					<step>G</step>
					<octave>5</octave>
				</pitch>
				<duration>3360</duration>
				<voice>1</voice>
				<type>eighth</type>
				<stem default-y="-30.50">down</stem>
			</note>
			<note>
				<pitch>
					<step>G</step>
					<octave>5</octave>
				</pitch>
				<duration>5040</duration>
				<voice>1</voice>
				<type>eighth</type>
				<dot/>
				<stem default-y="-30.50">down</stem>
			</note>
			<note>
				<rest>
					<display-step>A</display-step>
					<display-octave>4</display-octave>
				</rest>
				<duration>2520</duration>
				<voice>1</voice>
				<type>16th</type>
				<dot/>
			</note>
			<note>
				<pitch>
					<step>F</step>
					<octave>5</octave>
				</pitch>
				<duration>3360</duration>
				<voice>1</voice>
				<type>eighth</type>
				<stem default-y="-35.50">down</stem>
			</note>
			<note>
				<pitch>
					<step>E</step>
					<octave>5</octave>
				</pitch>
				<duration>3360</duration>
				<voice>1</voice>
				<type>eighth</type>
				<stem default-y="-40.50">down</stem>
			</note>
			<note>
				<pitch>
					<step>F</step>
					<octave>5</octave>
				</pitch>
				<duration>5040</duration>
				<voice>1</voice>
				<type>eighth</type>
				<dot/>
				<stem default-y="-35.50">down</stem>
			</note>
			<note>
				<rest>
					<display-step>A</display-step>
					<display-octave>4</display-octave>
				</rest>
				<duration>1680</duration>
				<voice>1</voice>
				<type>16th</type>
			</note>
			<note>
				<pitch>
					<step>E</step>
					<octave>5</octave>
				</pitch>
				<duration>3360</duration>
				<voice>1</voice>
				<type>eighth</type>
				<stem default-y="-40.50">down</stem>
			</note>
			<note>
				<pitch>
					<step>C</step>
					<octave>5</octave>
				</pitch>
				<duration>3360</duration>
				<voice>1</voice>
				<type>eighth</type>
				<stem default-y="-50.50">down</stem>
			</note>
			<note>
				<pitch>
					<step>B</step>
					<octave>4</octave>
				</pitch>
				<duration>5040</duration>
				<voice>1</voice>
				<type>eighth</type>
				<dot/>
				<stem default-y="-55.50">down</stem>
			</note>
			<note>
				<rest>
					<display-step>A</display-step>
					<display-octave>4</display-octave>
				</rest>
				<duration>840</duration>
				<voice>1</voice>
				<type>32nd</type>
			</note>
			<note>
				<pitch>
					<step>G</step>
					<octave>5</octave>
				</pitch>
				<duration>20160</duration>
				<voice>1</voice>
				<type>half</type>
				<dot/>
				<stem default-y="-30.50">down</stem>
			</note>
			<note>
				<rest>
				</rest>
				<duration>6720</duration>
				<voice>1</voice>
				<type>quarter</type>
			</note>
		</measure>
		<!--==========================[1,8]=============================-->
		<measure number="8" width="327">
			<note>
				<pitch>
					<step>C</step>
					<octave>5</octave>
				</pitch>
				<duration>3360</duration>
				<voice>1</voice>
				<type>eighth</type>
				<stem default-y="-50.50">down</stem>
			</note>
			<note>
				<pitch>
					<step>B</step>
					<octave>4</octave>
				</pitch>
				<duration>3360</duration>
				<voice>1</voice>
				<type>eighth</type>
				<stem default-y="-55.50">down</stem>
			</note>
			<note>
				<pitch>
					<step>C</step>
					<octave>5</octave>
				</pitch>
				<duration>3360</duration>
				<voice>1</voice>
				<type>eighth</type>
				<stem default-y="-50.50">down</stem>
			</note>
			<note>
				<pitch>
					<step>B</step>
					<octave>4</octave>
				</pitch>
				<duration>3360</duration>
				<voice>1</voice>
				<type>eighth</type>
				<stem default-y="-55.50">down</stem>
			</note>
			<note>
				<pitch>
					<step>C</step>
					<octave>5</octave>
				</pitch>
				<duration>3360</duration>
				<voice>1</voice>
				<type>eighth</type>
				<stem default-y="-50.50">down</stem>
			</note>
			<note>
				<rest>
					<display-step>E</display-step>
					<display-octave>4</display-octave>
				</rest>
				<duration>420</duration>
				<voice>1</voice>
				<type>64th</type>
			</note>
			<note>
				<pitch>
					<step>C</step>
					<octave>5</octave>
				</pitch>
				<duration>5040</duration>
				<voice>1</voice>
				<type>eighth</type>
				<dot/>
				<stem default-y="-50.50">down</stem>
			</note>
			<note>
				<rest>
					<display-step>A</display-step>
					<display-octave>4</display-octave>
				</rest>
				<duration>1260</duration>
				<voice>1</voice>
				<type>32nd</type>
				<dot/>
			</note>
			<note>
				<pitch>
					<step>B</step>
					<octave>4</octave>
				</pitch>
				<duration>10080</duration>
				<voice>1</voice>
				<type>quarter</type>
				<dot/>
				<stem default-y="-55.50">down</stem>
			</note>
			<note>
				<rest>
				</rest>
				<duration>3360</duration>
				<voice>1</voice>
				<type>eighth</type>
			</note>
		</measure>
		<!--==========================[1,9]=============================-->
		<measure number="9" width="487">
			<print new-system="yes">
				<system-layout>
					<system-margins>
						<left-margin>12.756</left-margin>
						<right-margin>12.500</right-margin>
					</system-margins>
					<system-distance>89.400</system-distance>
				</system-layout>
			</print>
			<attributes>
				<staff-details number="1" print-object="yes">
				</staff-details>
			</attributes>
			<note>
				<pitch>
					<step>B</step>
					<octave>4</octave>
				</pitch>
				<duration>3360</duration>
				<voice>1</voice>
				<type>eighth</type>
				<stem default-y="-55.50">down</stem>
			</note>
			<note>
				<pitch>
					<step>D</step>
					<octave>5</octave>
				</pitch>
				<duration>3360</duration>
				<voice>1</voice>
				<type>eighth</type>
				<stem default-y="-45.50">down</stem>
			</note>
			<note>
				<pitch>
					<step>G</step>
					<octave>5</octave>
				</pitch>
				<duration>3360</duration>
				<voice>1</voice>
				<type>eighth</type>
				<stem default-y="-30.50">down</stem>
			</note>
			<note>
				<pitch>
					<step>G</step>
					<octave>5</octave>
				</pitch>
				<duration>26880</duration>
				<tie type="start"/>
				<voice>1</voice>
				<type>whole</type>
				<stem>none</stem>
				<notations>
					<tied type="start" number="1" placement="above" orientation="over"/>
				</notations>
			</note>
			<note>
				<pitch>
					<step>G</step>
					<octave>5</octave>
				</pitch>
				<duration>26880</duration>
				<tie type="stop"/>
				<voice>1</voice>
				<type>whole</type>
				<stem>none</stem>
				<notations>
					<tied type="stop" number="1"/>
				</notations>
			</note>
			<note>
				<rest>
				</rest>
				<duration>6720</duration>
				<voice>1</voice>
				<type>quarter</type>
			</note>
		</measure>
		<!--==========================[1,10]=============================-->
		<measure number="10" width="412">
			<note>
				<pitch>
					<step>C</step>
					<octave>5</octave>
				</pitch>
				<duration>3360</duration>
				<voice>1</voice>
				<type>eighth</type>
				<stem default-y="-50.50">down</stem>
			</note>
			<note>
				<pitch>
					<step>B</step>
					<octave>4</octave>
				</pitch>
				<duration>3360</duration>
				<voice>1</voice>
				<type>eighth</type>
				<stem default-y="-55.50">down</stem>
			</note>
			<note>
				<pitch>
					<step>C</step>
					<octave>5</octave>
				</pitch>
				<duration>3360</duration>
				<voice>1</voice>
				<type>eighth</type>
				<stem default-y="-50.50">down</stem>
			</note>
			<note>
				<pitch>
					<step>B</step>
					<octave>4</octave>
				</pitch>
				<duration>3360</duration>
				<voice>1</voice>
				<type>eighth</type>
				<stem default-y="-55.50">down</stem>
			</note>
			<note>
				<pitch>
					<step>C</step>
					<octave>5</octave>
				</pitch>
				<duration>3360</duration>
				<voice>1</voice>
				<type>eighth</type>
				<stem default-y="-50.50">down</stem>
			</note>
			<note>
				<rest>
					<display-step>E</display-step>
					<display-octave>4</display-octave>
				</rest>
				<duration>420</duration>
				<voice>1</voice>
				<type>64th</type>
			</note>
			<note>
				<pitch>
					<step>C</step>
					<octave>5</octave>
				</pitch>
				<duration>5040</duration>
				<voice>1</voice>
				<type>eighth</type>
				<dot/>
				<stem default-y="-50.50">down</stem>
			</note>
			<note>
				<rest>
					<display-step>A</display-step>
					<display-octave>4</display-octave>
				</rest>
				<duration>1260</duration>
				<voice>1</voice>
				<type>32nd</type>
				<dot/>
			</note>
			<note>
				<pitch>
					<step>B</step>
					<octave>4</octave>
				</pitch>
				<duration>10080</duration>
				<voice>1</voice>
				<type>quarter</type>
				<dot/>
				<stem default-y="-55.50">down</stem>
			</note>
			<note>
				<rest>
				</rest>
				<duration>3360</duration>
				<voice>1</voice>
				<type>eighth</type>
			</note>
		</measure>
		<!--==========================[1,11]=============================-->
		<measure number="11" width="572">
			<print new-system="yes">
				<system-layout>
					<system-margins>
						<left-margin>12.756</left-margin>
						<right-margin>12.500</right-margin>
					</system-margins>
					<system-distance>89.400</system-distance>
				</system-layout>
			</print>
			<attributes>
				<staff-details number="1" print-object="yes">
				</staff-details>
			</attributes>
			<note>
				<pitch>
					<step>B</step>
					<octave>4</octave>
				</pitch>
				<duration>3360</duration>
				<voice>1</voice>
				<type>eighth</type>
				<stem default-y="-55.50">down</stem>
			</note>
			<note>
				<pitch>
					<step>D</step>
					<octave>5</octave>
				</pitch>
				<duration>3360</duration>
				<voice>1</voice>
				<type>eighth</type>
				<stem default-y="-45.50">down</stem>
			</note>
			<note>
				<pitch>
					<step>G</step>
					<octave>5</octave>
				</pitch>
				<duration>3360</duration>
				<voice>1</voice>
				<type>eighth</type>
				<stem default-y="-30.50">down</stem>
			</note>
			<note>
				<pitch>
					<step>G</step>
					<octave>5</octave>
				</pitch>
				<duration>5040</duration>
				<voice>1</voice>
				<type>eighth</type>
				<dot/>
				<stem default-y="-30.50">down</stem>
			</note>
			<note>
				<rest>
					<display-step>A</display-step>
					<display-octave>4</display-octave>
				</rest>
				<duration>2520</duration>
				<voice>1</voice>
				<type>16th</type>
				<dot/>
			</note>
			<note>
				<pitch>
					<step>F</step>
					<octave>5</octave>
				</pitch>
				<duration>3360</duration>
				<voice>1</voice>
				<type>eighth</type>
				<stem default-y="-35.50">down</stem>
			</note>
			<note>
				<pitch>
					<step>E</step>
					<octave>5</octave>
				</pitch>
				<duration>3360</duration>
				<voice>1</voice>
				<type>eighth</type>
				<stem default-y="-40.50">down</stem>
			</note>
			<note>
				<pitch>
					<step>F</step>
					<octave>5</octave>
				</pitch>
				<duration>5040</duration>
				<voice>1</voice>
				<type>eighth</type>
				<dot/>
				<stem default-y="-35.50">down</stem>
			</note>
			<note>
				<rest>
					<display-step>A</display-step>
					<display-octave>4</display-octave>
				</rest>
				<duration>1680</duration>
				<voice>1</voice>
				<type>16th</type>
			</note>
			<note>
				<pitch>
					<step>E</step>
					<octave>5</octave>
				</pitch>
				<duration>3360</duration>
				<voice>1</voice>
				<type>eighth</type>
				<stem default-y="-40.50">down</stem>
			</note>
			<note>
				<pitch>
					<step>C</step>
					<octave>5</octave>
				</pitch>
				<duration>3360</duration>
				<voice>1</voice>
				<type>eighth</type>
				<stem default-y="-50.50">down</stem>
			</note>
			<note>
				<pitch>
					<step>B</step>
					<octave>4</octave>
				</pitch>
				<duration>5040</duration>
				<voice>1</voice>
				<type>eighth</type>
				<dot/>
				<stem default-y="-55.50">down</stem>
			</note>
			<note>
				<rest>
					<display-step>A</display-step>
					<display-octave>4</display-octave>
				</rest>
				<duration>840</duration>
				<voice>1</voice>
				<type>32nd</type>
			</note>
			<note>
				<pitch>
					<step>G</step>
					<octave>5</octave>
				</pitch>
				<duration>20160</duration>
				<voice>1</voice>
				<type>half</type>
				<dot/>
				<stem default-y="-30.50">down</stem>
			</note>
			<note>
				<rest>
				</rest>
				<duration>6720</duration>
				<voice>1</voice>
				<type>quarter</type>
			</note>
		</measure>
		<!--==========================[1,12]=============================-->
		<measure number="12" width="327">
			<note>
				<pitch>
					<step>C</step>
					<octave>5</octave>
				</pitch>
				<duration>3360</duration>
				<voice>1</voice>
				<type>eighth</type>
				<stem default-y="-50.50">down</stem>
			</note>
			<note>
				<pitch>
					<step>B</step>
					<octave>4</octave>
				</pitch>
				<duration>3360</duration>
				<voice>1</voice>
				<type>eighth</type>
				<stem default-y="-55.50">down</stem>
			</note>
			<note>
				<pitch>
					<step>C</step>
					<octave>5</octave>
				</pitch>
				<duration>3360</duration>
				<voice>1</voice>
				<type>eighth</type>
				<stem default-y="-50.50">down</stem>
			</note>
			<note>
				<pitch>
					<step>B</step>
					<octave>4</octave>
				</pitch>
				<duration>3360</duration>
				<voice>1</voice>
				<type>eighth</type>
				<stem default-y="-55.50">down</stem>
			</note>
			<note>
				<pitch>
					<step>C</step>
					<octave>5</octave>
				</pitch>
				<duration>3360</duration>
				<voice>1</voice>
				<type>eighth</type>
				<stem default-y="-50.50">down</stem>
			</note>
			<note>
				<rest>
					<display-step>E</display-step>
					<display-octave>4</display-octave>
				</rest>
				<duration>420</duration>
				<voice>1</voice>
				<type>64th</type>
			</note>
			<note>
				<pitch>
					<step>C</step>
					<octave>5</octave>
				</pitch>
				<duration>5040</duration>
				<voice>1</voice>
				<type>eighth</type>
				<dot/>
				<stem default-y="-50.50">down</stem>
			</note>
			<note>
				<rest>
					<display-step>A</display-step>
					<display-octave>4</display-octave>
				</rest>
				<duration>1260</duration>
				<voice>1</voice>
				<type>32nd</type>
				<dot/>
			</note>
			<note>
				<pitch>
					<step>B</step>
					<octave>4</octave>
				</pitch>
				<duration>10080</duration>
				<voice>1</voice>
				<type>quarter</type>
				<dot/>
				<stem default-y="-55.50">down</stem>
			</note>
			<note>
				<rest>
				</rest>
				<duration>3360</duration>
				<voice>1</voice>
				<type>eighth</type>
			</note>
		</measure>
		<!--==========================[1,13]=============================-->
		<measure number="13" width="457">
			<print new-system="yes">
				<system-layout>
					<system-margins>
						<left-margin>12.756</left-margin>
						<right-margin>12.500</right-margin>
					</system-margins>
					<system-distance>89.400</system-distance>
				</system-layout>
			</print>
			<attributes>
				<staff-details number="1" print-object="yes">
				</staff-details>
			</attributes>
			<note>
				<pitch>
					<step>B</step>
					<octave>4</octave>
				</pitch>
				<duration>3360</duration>
				<voice>1</voice>
				<type>eighth</type>
				<stem default-y="-55.50">down</stem>
			</note>
			<note>
				<pitch>
					<step>D</step>
					<octave>5</octave>
				</pitch>
				<duration>3360</duration>
				<voice>1</voice>
				<type>eighth</type>
				<stem default-y="-45.50">down</stem>
			</note>
			<note>
				<pitch>
					<step>G</step>
					<octave>5</octave>
				</pitch>
				<duration>3360</duration>
				<voice>1</voice>
				<type>eighth</type>
				<stem default-y="-30.50">down</stem>
			</note>
			<note>
				<pitch>
					<step>G</step>
					<octave>5</octave>
				</pitch>
				<duration>26880</duration>
				<tie type="start"/>
				<voice>1</voice>
				<type>whole</type>
				<stem>none</stem>
				<notations>
					<tied type="start" number="1" placement="above" orientation="over"/>
				</notations>
			</note>
			<note>
				<pitch>
					<step>G</step>
					<octave>5</octave>
				</pitch>
				<duration>26880</duration>
				<tie type="stop"/>
				<voice>1</voice>
				<type>whole</type>
				<stem>none</stem>
				<notations>
					<tied type="stop" number="1"/>
				</notations>
			</note>
		</measure>
		<!--==========================[1,14]=============================-->
		<measure number="14" width="442">
			<note>
				<pitch>
					<step>C</step>
					<octave>5</octave>
				</pitch>
				<duration>3360</duration>
				<voice>1</voice>
				<type>eighth</type>
				<stem default-y="-50.50">down</stem>
			</note>
			<note>
				<pitch>
					<step>B</step>
					<octave>4</octave>
				</pitch>
				<duration>3360</duration>
				<voice>1</voice>
				<type>eighth</type>
				<stem default-y="-55.50">down</stem>
			</note>
			<note>
				<pitch>
					<step>C</step>
					<octave>5</octave>
				</pitch>
				<duration>3360</duration>
				<voice>1</voice>
				<type>eighth</type>
				<stem default-y="-50.50">down</stem>
			</note>
			<note>
				<pitch>
					<step>B</step>
					<octave>4</octave>
				</pitch>
				<duration>3360</duration>
				<voice>1</voice>
				<type>eighth</type>
				<stem default-y="-55.50">down</stem>
			</note>
			<note>
				<pitch>
					<step>C</step>
					<octave>5</octave>
				</pitch>
				<duration>3360</duration>
				<voice>1</voice>
				<type>eighth</type>
				<stem default-y="-50.50">down</stem>
			</note>
			<note>
				<rest>
					<display-step>E</display-step>
					<display-octave>4</display-octave>
				</rest>
				<duration>420</duration>
				<voice>1</voice>
				<type>64th</type>
			</note>
			<note>
				<pitch>
					<step>C</step>
					<octave>5</octave>
				</pitch>
				<duration>5040</duration>
				<voice>1</voice>
				<type>eighth</type>
				<dot/>
				<stem default-y="-50.50">down</stem>
			</note>
			<note>
				<rest>
					<display-step>A</display-step>
					<display-octave>4</display-octave>
				</rest>
				<duration>1260</duration>
				<voice>1</voice>
				<type>32nd</type>
				<dot/>
			</note>
			<note>
				<pitch>
					<step>B</step>
					<octave>4</octave>
				</pitch>
				<duration>10080</duration>
				<voice>1</voice>
				<type>quarter</type>
				<dot/>
				<stem default-y="-55.50">down</stem>
			</note>
			<note>
				<rest>
				</rest>
				<duration>3360</duration>
				<voice>1</voice>
				<type>eighth</type>
			</note>
		</measure>
		<!--==========================[1,15]=============================-->
		<measure number="15" width="572">
			<print new-system="yes">
				<system-layout>
					<system-margins>
						<left-margin>12.756</left-margin>
						<right-margin>12.500</right-margin>
					</system-margins>
					<system-distance>89.400</system-distance>
				</system-layout>
			</print>
			<attributes>
				<staff-details number="1" print-object="yes">
				</staff-details>
			</attributes>
			<note>
				<pitch>
					<step>B</step>
					<octave>4</octave>
				</pitch>
				<duration>3360</duration>
				<voice>1</voice>
				<type>eighth</type>
				<stem default-y="-55.50">down</stem>
			</note>
			<note>
				<pitch>
					<step>D</step>
					<octave>5</octave>
				</pitch>
				<duration>3360</duration>
				<voice>1</voice>
				<type>eighth</type>
				<stem default-y="-45.50">down</stem>
			</note>
			<note>
				<pitch>
					<step>G</step>
					<octave>5</octave>
				</pitch>
				<duration>3360</duration>
				<voice>1</voice>
				<type>eighth</type>
				<stem default-y="-30.50">down</stem>
			</note>
			<note>
				<pitch>
					<step>G</step>
					<octave>5</octave>
				</pitch>
				<duration>5040</duration>
				<voice>1</voice>
				<type>eighth</type>
				<dot/>
				<stem default-y="-30.50">down</stem>
			</note>
			<note>
				<rest>
					<display-step>A</display-step>
					<display-octave>4</display-octave>
				</rest>
				<duration>2520</duration>
				<voice>1</voice>
				<type>16th</type>
				<dot/>
			</note>
			<note>
				<pitch>
					<step>F</step>
					<octave>5</octave>
				</pitch>
				<duration>3360</duration>
				<voice>1</voice>
				<type>eighth</type>
				<stem default-y="-35.50">down</stem>
			</note>
			<note>
				<pitch>
					<step>E</step>
					<octave>5</octave>
				</pitch>
				<duration>3360</duration>
				<voice>1</voice>
				<type>eighth</type>
				<stem default-y="-40.50">down</stem>
			</note>
			<note>
				<pitch>
					<step>F</step>
					<octave>5</octave>
				</pitch>
				<duration>5040</duration>
				<voice>1</voice>
				<type>eighth</type>
				<dot/>
				<stem default-y="-35.50">down</stem>
			</note>
			<note>
				<rest>
					<display-step>A</display-step>
					<display-octave>4</display-octave>
				</rest>
				<duration>1680</duration>
				<voice>1</voice>
				<type>16th</type>
			</note>
			<note>
				<pitch>
					<step>E</step>
					<octave>5</octave>
				</pitch>
				<duration>3360</duration>
				<voice>1</voice>
				<type>eighth</type>
				<stem default-y="-40.50">down</stem>
			</note>
			<note>
				<pitch>
					<step>C</step>
					<octave>5</octave>
				</pitch>
				<duration>3360</duration>
				<voice>1</voice>
				<type>eighth</type>
				<stem default-y="-50.50">down</stem>
			</note>
			<note>
				<pitch>
					<step>B</step>
					<octave>4</octave>
				</pitch>
				<duration>5040</duration>
				<voice>1</voice>
				<type>eighth</type>
				<dot/>
				<stem default-y="-55.50">down</stem>
			</note>
			<note>
				<rest>
					<display-step>A</display-step>
					<display-octave>4</display-octave>
				</rest>
				<duration>840</duration>
				<voice>1</voice>
				<type>32nd</type>
			</note>
			<note>
				<pitch>
					<step>G</step>
					<octave>5</octave>
				</pitch>
				<duration>20160</duration>
				<voice>1</voice>
				<type>half</type>
				<dot/>
				<stem default-y="-30.50">down</stem>
			</note>
			<note>
				<rest>
				</rest>
				<duration>6720</duration>
				<voice>1</voice>
				<type>quarter</type>
			</note>
		</measure>
		<!--==========================[1,16]=============================-->
		<measure number="16" width="327">
			<note>
				<pitch>
					<step>C</step>
					<octave>5</octave>
				</pitch>
				<duration>3360</duration>
				<voice>1</voice>
				<type>eighth</type>
				<stem default-y="-50.50">down</stem>
			</note>
			<note>
				<pitch>
					<step>B</step>
					<octave>4</octave>
				</pitch>
				<duration>3360</duration>
				<voice>1</voice>
				<type>eighth</type>
				<stem default-y="-55.50">down</stem>
			</note>
			<note>
				<pitch>
					<step>C</step>
					<octave>5</octave>
				</pitch>
				<duration>3360</duration>
				<voice>1</voice>
				<type>eighth</type>
				<stem default-y="-50.50">down</stem>
			</note>
			<note>
				<pitch>
					<step>B</step>
					<octave>4</octave>
				</pitch>
				<duration>3360</duration>
				<voice>1</voice>
				<type>eighth</type>
				<stem default-y="-55.50">down</stem>
			</note>
			<note>
				<pitch>
					<step>C</step>
					<octave>5</octave>
				</pitch>
				<duration>3360</duration>
				<voice>1</voice>
				<type>eighth</type>
				<stem default-y="-50.50">down</stem>
			</note>
			<note>
				<rest>
					<display-step>E</display-step>
					<display-octave>4</display-octave>
				</rest>
				<duration>420</duration>
				<voice>1</voice>
				<type>64th</type>
			</note>
			<note>
				<pitch>
					<step>C</step>
					<octave>5</octave>
				</pitch>
				<duration>5040</duration>
				<voice>1</voice>
				<type>eighth</type>
				<dot/>
				<stem default-y="-50.50">down</stem>
			</note>
			<note>
				<rest>
					<display-step>A</display-step>
					<display-octave>4</display-octave>
				</rest>
				<duration>1260</duration>
				<voice>1</voice>
				<type>32nd</type>
				<dot/>
			</note>
			<note>
				<pitch>
					<step>B</step>
					<octave>4</octave>
				</pitch>
				<duration>10080</duration>
				<voice>1</voice>
				<type>quarter</type>
				<dot/>
				<stem default-y="-55.50">down</stem>
			</note>
			<note>
				<rest>
				</rest>
				<duration>3360</duration>
				<voice>1</voice>
				<type>eighth</type>
			</note>
		</measure>
		<!--==========================[1,17]=============================-->
		<measure number="17" width="457">
			<print new-system="yes">
				<system-layout>
					<system-margins>
						<left-margin>12.756</left-margin>
						<right-margin>12.500</right-margin>
					</system-margins>
					<system-distance>89.400</system-distance>
				</system-layout>
			</print>
			<attributes>
				<staff-details number="1" print-object="yes">
				</staff-details>
			</attributes>
			<note>
				<pitch>
					<step>B</step>
					<octave>4</octave>
				</pitch>
				<duration>3360</duration>
				<voice>1</voice>
				<type>eighth</type>
				<stem default-y="-55.50">down</stem>
			</note>
			<note>
				<pitch>
					<step>D</step>
					<octave>5</octave>
				</pitch>
				<duration>3360</duration>
				<voice>1</voice>
				<type>eighth</type>
				<stem default-y="-45.50">down</stem>
			</note>
			<note>
				<pitch>
					<step>G</step>
					<octave>5</octave>
				</pitch>
				<duration>3360</duration>
				<voice>1</voice>
				<type>eighth</type>
				<stem default-y="-30.50">down</stem>
			</note>
			<note>
				<pitch>
					<step>G</step>
					<octave>5</octave>
				</pitch>
				<duration>26880</duration>
				<tie type="start"/>
				<voice>1</voice>
				<type>whole</type>
				<stem>none</stem>
				<notations>
					<tied type="start" number="1" placement="above" orientation="over"/>
				</notations>
			</note>
			<note>
				<pitch>
					<step>G</step>
					<octave>5</octave>
				</pitch>
				<duration>26880</duration>
				<tie type="stop"/>
				<voice>1</voice>
				<type>whole</type>
				<stem>none</stem>
				<notations>
					<tied type="stop" number="1"/>
				</notations>
			</note>
		</measure>
		<!--==========================[1,18]=============================-->
		<measure number="18" width="442">
			<note>
				<pitch>
					<step>C</step>
					<octave>5</octave>
				</pitch>
				<duration>3360</duration>
				<voice>1</voice>
				<type>eighth</type>
				<stem default-y="-50.50">down</stem>
			</note>
			<note>
				<pitch>
					<step>B</step>
					<octave>4</octave>
				</pitch>
				<duration>3360</duration>
				<voice>1</voice>
				<type>eighth</type>
				<stem default-y="-55.50">down</stem>
			</note>
			<note>
				<pitch>
					<step>C</step>
					<octave>5</octave>
				</pitch>
				<duration>3360</duration>
				<voice>1</voice>
				<type>eighth</type>
				<stem default-y="-50.50">down</stem>
			</note>
			<note>
				<pitch>
					<step>B</step>
					<octave>4</octave>
				</pitch>
				<duration>3360</duration>
				<voice>1</voice>
				<type>eighth</type>
				<stem default-y="-55.50">down</stem>
			</note>
			<note>
				<pitch>
					<step>C</step>
					<octave>5</octave>
				</pitch>
				<duration>3360</duration>
				<voice>1</voice>
				<type>eighth</type>
				<stem default-y="-50.50">down</stem>
			</note>
			<note>
				<rest>
					<display-step>E</display-step>
					<display-octave>4</display-octave>
				</rest>
				<duration>420</duration>
				<voice>1</voice>
				<type>64th</type>
			</note>
			<note>
				<pitch>
					<step>C</step>
					<octave>5</octave>
				</pitch>
				<duration>5040</duration>
				<voice>1</voice>
				<type>eighth</type>
				<dot/>
				<stem default-y="-50.50">down</stem>
			</note>
			<note>
				<rest>
					<display-step>A</display-step>
					<display-octave>4</display-octave>
				</rest>
				<duration>1260</duration>
				<voice>1</voice>
				<type>32nd</type>
				<dot/>
			</note>
			<note>
				<pitch>
					<step>B</step>
					<octave>4</octave>
				</pitch>
				<duration>10080</duration>
				<voice>1</voice>
				<type>quarter</type>
				<dot/>
				<stem default-y="-55.50">down</stem>
			</note>
			<note>
				<rest>
				</rest>
				<duration>3360</duration>
				<voice>1</voice>
				<type>eighth</type>
			</note>
		</measure>
		<!--==========================[1,19]=============================-->
		<measure number="19" width="572">
			<print new-system="yes">
				<system-layout>
					<system-margins>
						<left-margin>12.756</left-margin>
						<right-margin>12.500</right-margin>
					</system-margins>
					<system-distance>89.400</system-distance>
				</system-layout>
			</print>
			<attributes>
				<staff-details number="1" print-object="yes">
				</staff-details>
			</attributes>
			<note>
				<pitch>
					<step>B</step>
					<octave>4</octave>
				</pitch>
				<duration>3360</duration>
				<voice>1</voice>
				<type>eighth</type>
				<stem default-y="-55.50">down</stem>
			</note>
			<note>
				<pitch>
					<step>D</step>
					<octave>5</octave>
				</pitch>
				<duration>3360</duration>
				<voice>1</voice>
				<type>eighth</type>
				<stem default-y="-45.50">down</stem>
			</note>
			<note>
				<pitch>
					<step>G</step>
					<octave>5</octave>
				</pitch>
				<duration>3360</duration>
				<voice>1</voice>
				<type>eighth</type>
				<stem default-y="-30.50">down</stem>
			</note>
			<note>
				<pitch>
					<step>G</step>
					<octave>5</octave>
				</pitch>
				<duration>5040</duration>
				<voice>1</voice>
				<type>eighth</type>
				<dot/>
				<stem default-y="-30.50">down</stem>
			</note>
			<note>
				<rest>
					<display-step>A</display-step>
					<display-octave>4</display-octave>
				</rest>
				<duration>2520</duration>
				<voice>1</voice>
				<type>16th</type>
				<dot/>
			</note>
			<note>
				<pitch>
					<step>F</step>
					<octave>5</octave>
				</pitch>
				<duration>3360</duration>
				<voice>1</voice>
				<type>eighth</type>
				<stem default-y="-35.50">down</stem>
			</note>
			<note>
				<pitch>
					<step>E</step>
					<octave>5</octave>
				</pitch>
				<duration>3360</duration>
				<voice>1</voice>
				<type>eighth</type>
				<stem default-y="-40.50">down</stem>
			</note>
			<note>
				<pitch>
					<step>F</step>
					<octave>5</octave>
				</pitch>
				<duration>5040</duration>
				<voice>1</voice>
				<type>eighth</type>
				<dot/>
				<stem default-y="-35.50">down</stem>
			</note>
			<note>
				<rest>
					<display-step>A</display-step>
					<display-octave>4</display-octave>
				</rest>
				<duration>1680</duration>
				<voice>1</voice>
				<type>16th</type>
			</note>
			<note>
				<pitch>
					<step>E</step>
					<octave>5</octave>
				</pitch>
				<duration>3360</duration>
				<voice>1</voice>
				<type>eighth</type>
				<stem default-y="-40.50">down</stem>
			</note>
			<note>
				<pitch>
					<step>C</step>
					<octave>5</octave>
				</pitch>
				<duration>3360</duration>
				<voice>1</voice>
				<type>eighth</type>
				<stem default-y="-50.50">down</stem>
			</note>
			<note>
				<pitch>
					<step>B</step>
					<octave>4</octave>
				</pitch>
				<duration>5040</duration>
				<voice>1</voice>
				<type>eighth</type>
				<dot/>
				<stem default-y="-55.50">down</stem>
			</note>
			<note>
				<rest>
					<display-step>A</display-step>
					<display-octave>4</display-octave>
				</rest>
				<duration>840</duration>
				<voice>1</voice>
				<type>32nd</type>
			</note>
			<note>
				<pitch>
					<step>G</step>
					<octave>5</octave>
				</pitch>
				<duration>20160</duration>
				<voice>1</voice>
				<type>half</type>
				<dot/>
				<stem default-y="-30.50">down</stem>
			</note>
			<note>
				<rest>
				</rest>
				<duration>6720</duration>
				<voice>1</voice>
				<type>quarter</type>
			</note>
		</measure>
		<!--==========================[1,20]=============================-->
		<measure number="20" width="327">
			<note>
				<pitch>
					<step>C</step>
					<octave>5</octave>
				</pitch>
				<duration>3360</duration>
				<voice>1</voice>
				<type>eighth</type>
				<stem default-y="-50.50">down</stem>
			</note>
			<note>
				<pitch>
					<step>B</step>
					<octave>4</octave>
				</pitch>
				<duration>3360</duration>
				<voice>1</voice>
				<type>eighth</type>
				<stem default-y="-55.50">down</stem>
			</note>
			<note>
				<pitch>
					<step>C</step>
					<octave>5</octave>
				</pitch>
				<duration>3360</duration>
				<voice>1</voice>
				<type>eighth</type>
				<stem default-y="-50.50">down</stem>
			</note>
			<note>
				<pitch>
					<step>B</step>
					<octave>4</octave>
				</pitch>
				<duration>3360</duration>
				<voice>1</voice>
				<type>eighth</type>
				<stem default-y="-55.50">down</stem>
			</note>
			<note>
				<pitch>
					<step>C</step>
					<octave>5</octave>
				</pitch>
				<duration>3360</duration>
				<voice>1</voice>
				<type>eighth</type>
				<stem default-y="-50.50">down</stem>
			</note>
			<note>
				<rest>
					<display-step>E</display-step>
					<display-octave>4</display-octave>
				</rest>
				<duration>420</duration>
				<voice>1</voice>
				<type>64th</type>
			</note>
			<note>
				<pitch>
					<step>C</step>
					<octave>5</octave>
				</pitch>
				<duration>5040</duration>
				<voice>1</voice>
				<type>eighth</type>
				<dot/>
				<stem default-y="-50.50">down</stem>
			</note>
			<note>
				<rest>
					<display-step>A</display-step>
					<display-octave>4</display-octave>
				</rest>
				<duration>1260</duration>
				<voice>1</voice>
				<type>32nd</type>
				<dot/>
			</note>
			<note>
				<pitch>
					<step>B</step>
					<octave>4</octave>
				</pitch>
				<duration>10080</duration>
				<voice>1</voice>
				<type>quarter</type>
				<dot/>
				<stem default-y="-55.50">down</stem>
			</note>
			<note>
				<rest>
				</rest>
				<duration>3360</duration>
				<voice>1</voice>
				<type>eighth</type>
			</note>
		</measure>
	</part>
</score-partwise>
